<svg width="19" height="19" viewBox="0 0 19 19" fill="none" xmlns="http://www.w3.org/2000/svg">
<rect width="19" height="19" rx="9.5" fill="#149AFB"/>
<path d="M12.1612 7.67986L11.8656 7.38425C11.3057 6.82425 10.5653 6.48104 9.77612 6.41568C8.98695 6.35032 8.20018 6.56705 7.55581 7.02731C6.91143 7.48757 6.45124 8.16151 6.25711 8.92922C6.06298 9.69693 6.1475 10.5086 6.49564 11.2198C6.84378 11.9311 7.43295 12.4958 8.15833 12.8134C8.88371 13.131 9.69825 13.181 10.457 12.9544C11.2158 12.7279 11.8696 12.2395 12.3021 11.5762C12.7346 10.9128 12.9177 10.1176 12.8189 9.33187M12.1612 7.67986L10.3871 7.68028M12.1612 7.67986V5.90576" stroke="white" stroke-width="0.85" stroke-linecap="round" stroke-linejoin="round"/>
</svg>
