<svg width="24" height="24" viewBox="0 0 24 24" fill="none" xmlns="http://www.w3.org/2000/svg">
<path d="M21 12C21 7.02975 16.9703 3 12 3C7.02975 3 3 7.02975 3 12C3 16.9703 7.02975 21 12 21C16.9703 21 21 16.9703 21 12ZM22.5 12C22.5 17.799 17.799 22.5 12 22.5C6.201 22.5 1.5 17.799 1.5 12C1.5 6.201 6.201 1.5 12 1.5C17.799 1.5 22.5 6.201 22.5 12ZM7.5 11.25C7.30109 11.25 7.11032 11.329 6.96967 11.4697C6.82902 11.6103 6.75 11.8011 6.75 12C6.75 12.1989 6.82902 12.3897 6.96967 12.5303C7.11032 12.671 7.30109 12.75 7.5 12.75H16.5C16.6989 12.75 16.8897 12.671 17.0303 12.5303C17.171 12.3897 17.25 12.1989 17.25 12C17.25 11.8011 17.171 11.6103 17.0303 11.4697C16.8897 11.329 16.6989 11.25 16.5 11.25H7.5Z" fill="url(#paint0_linear_238_9220)"/>
<defs>
<linearGradient id="paint0_linear_238_9220" x1="12" y1="1.5" x2="12" y2="22.5" gradientUnits="userSpaceOnUse">
<stop stop-color="#72C2FD"/>
<stop offset="1" stop-color="#71F5BF"/>
</linearGradient>
</defs>
</svg>
